<svg width="87" height="87" viewBox="0 0 87 87" fill="none" xmlns="http://www.w3.org/2000/svg">
<g clip-path="url(#clip0_2571_314)">
<mask id="mask0_2571_314" style="mask-type:luminance" maskUnits="userSpaceOnUse" x="0" y="0" width="87" height="87">
<path d="M87 0H0V87H87V0Z" fill="white"/>
</mask>
<g mask="url(#mask0_2571_314)">
<path d="M58.4485 1.82313L85.2039 28.5785V85.2059H28.2866L1.82313 58.7134V1.82313H58.4505H58.4485ZM59.1619 0H0V59.4519L27.5481 87H87V27.8381L59.1619 0Z" fill="#F49819"/>
<path d="M22.759 20.2037C22.7183 20.6412 22.7997 21.1194 22.9975 21.5189C23.1168 21.8368 23.3146 22.2771 23.4339 22.595C23.4746 22.6358 23.5124 22.7146 23.5124 22.7554C23.5124 22.7962 23.5531 22.8749 23.5124 22.9158C23.5124 23.1141 23.3931 23.2336 23.1953 23.3532L22.2005 23.9918H21.8834C21.8049 23.9918 21.7234 23.9918 21.6449 23.951C21.5664 23.9102 21.4849 23.8723 21.4471 23.7906C21.2493 23.5923 21.0486 23.3911 20.8915 23.152C20.7315 22.872 20.5744 22.595 20.4552 22.2742C19.9374 22.9128 19.2625 23.4698 18.5091 23.8285C17.7557 24.1872 16.9209 24.3855 16.086 24.3855C15.5682 24.4263 15.0126 24.3447 14.4978 24.1464C13.9829 23.9481 13.5436 23.6681 13.148 23.2686C12.7902 22.8691 12.4732 22.4317 12.3132 21.9155C12.1154 21.3964 12.0339 20.8803 12.0747 20.3612C12.0747 19.8042 12.1532 19.2064 12.3917 18.6873C12.6303 18.1683 12.9473 17.69 13.3866 17.2934C14.4192 16.4973 15.6904 16.0978 17.0023 16.0978C17.4794 16.0978 17.9972 16.1386 18.4713 16.2173L20.1003 16.5352V15.4591C20.141 15.0217 20.141 14.5814 20.0217 14.1848C19.9025 13.7882 19.7047 13.3887 19.4254 13.0679C19.1084 12.7879 18.7098 12.5896 18.2735 12.5109C17.875 12.3913 17.4387 12.3505 17.0023 12.4322C16.4467 12.473 15.8882 12.5109 15.3733 12.6305C14.8177 12.75 14.2592 12.9483 13.7444 13.1874C13.5466 13.307 13.4273 13.307 13.1888 13.4266H12.991C12.7932 13.4266 12.6739 13.307 12.6739 12.9891V12.193C12.6739 11.9947 12.7146 11.7935 12.7932 11.636C12.9124 11.5165 13.0724 11.3969 13.2295 11.3182C13.7851 11.0003 14.4221 10.7612 15.0563 10.6795C15.8126 10.4812 16.566 10.3617 17.3601 10.3617C18.7506 10.2421 20.1032 10.6795 21.1737 11.5573C21.61 12.0356 21.93 12.6334 22.1278 13.2312C22.3256 13.8698 22.407 14.5055 22.3663 15.1442L22.7648 20.2037H22.759ZM16.7987 22.3938C17.2758 22.3529 17.7935 22.315 18.2677 22.1955C18.8233 21.9563 19.3003 21.6385 19.7367 21.1981C20.0159 20.9182 20.173 20.5595 20.2923 20.2008C20.3708 19.7634 20.4115 19.3231 20.4115 18.8856V18.2091C19.4981 18.0108 18.5848 17.8912 17.6685 17.8912C16.9121 17.8125 16.118 18.0108 15.4839 18.4482C15.0475 18.8856 14.809 19.4455 14.7683 20.0404C14.7276 20.6353 14.9283 21.2361 15.2861 21.7143C15.4461 21.9534 15.6846 22.1517 15.9609 22.2713C16.2402 22.3909 16.5165 22.4317 16.8365 22.35H16.7958V22.3909L16.7987 22.3938ZM28.6815 24.0676C28.4837 24.0676 28.2452 24.0676 28.1259 23.9481C28.0066 23.7877 27.8874 23.5894 27.8088 23.3911L24.3124 11.9189C24.2338 11.7585 24.1931 11.5602 24.1931 11.3619C24.1931 11.1636 24.3124 11.0441 24.3909 11.0441H25.8599C26.0577 11.0441 26.2962 11.0441 26.4155 11.1636C26.5755 11.324 26.654 11.5223 26.7326 11.7206L29.2371 21.4402L31.5409 11.7206C31.5409 11.601 31.5817 11.5223 31.6195 11.4028C31.6602 11.324 31.7387 11.2424 31.858 11.1636C32.018 11.0849 32.2158 11.0441 32.4136 11.0441H33.6062C33.8041 11.0032 34.0048 11.0441 34.1618 11.1636C34.2811 11.324 34.4004 11.5223 34.4789 11.7206L36.7828 21.6793L39.2873 11.7206C39.2873 11.601 39.328 11.4815 39.3658 11.4028C39.4066 11.324 39.4851 11.2424 39.6044 11.1636C39.7644 11.0849 39.9622 11.0441 40.16 11.0441H41.629C41.8268 11.0441 41.946 11.1636 41.946 11.2832V11.6011C41.946 11.7206 41.8268 11.7993 41.8268 11.9189L38.3303 23.2715C38.3303 23.3911 38.2896 23.5107 38.2517 23.5894C38.211 23.6681 38.0918 23.7498 38.0132 23.8285C37.894 24.0268 37.6961 24.0268 37.4576 24.0268H36.1457C35.9479 24.0268 35.7094 24.0268 35.5901 23.9073C35.4708 23.7877 35.3923 23.5894 35.273 23.3503L32.9692 13.829L30.7032 23.3503C30.7032 23.4698 30.6625 23.5894 30.6246 23.6681C30.5839 23.7469 30.4647 23.8285 30.3861 23.9073C30.2668 23.986 30.1069 24.0268 29.9498 24.0268H28.6786V24.0676H28.6815ZM47.5573 24.5051C46.801 24.5051 46.0476 24.4263 45.2913 24.3068C44.6949 24.1872 44.0986 23.9889 43.543 23.7498C43.383 23.6711 43.2259 23.5515 43.1445 23.4319C43.066 23.2715 42.9845 23.0732 43.0252 22.9128V22.1546C43.0252 21.8368 43.1445 21.7172 43.3423 21.7172H43.5401C43.6594 21.7172 43.7379 21.8368 43.8572 21.8368C44.375 22.0759 44.9306 22.2363 45.4862 22.3938C46.0417 22.5133 46.6381 22.5921 47.2344 22.5921C47.9907 22.6329 48.7441 22.4317 49.419 22.0351C49.6575 21.8747 49.8553 21.6356 49.9746 21.3964C50.0938 21.1573 50.1724 20.8774 50.1724 20.5595C50.2131 20.3612 50.1724 20.16 50.0938 20.0025C50.0153 19.845 49.896 19.6847 49.736 19.5651C49.2997 19.2064 48.8226 18.9265 48.267 18.8069L46.0825 18.1683C45.1691 17.9291 44.3342 17.41 43.6972 16.6956C43.2201 16.0569 42.9409 15.3017 42.9409 14.5055C42.9409 13.9077 43.1009 13.3507 43.3772 12.8725C43.9735 11.916 44.9276 11.2394 46.001 10.9216C46.5973 10.7233 47.2315 10.6416 47.8278 10.6825C48.1449 10.6825 48.5027 10.7233 48.8226 10.802C49.1397 10.8428 49.4975 10.8808 49.8175 11.0003C50.1375 11.1199 50.3731 11.1199 50.6931 11.1986C51.0101 11.3182 51.1294 11.3182 51.3301 11.3969C51.4901 11.4757 51.6472 11.5952 51.7664 11.7148C51.845 11.8752 51.8857 12.0735 51.8857 12.2718V12.9104C51.8857 13.2283 51.7664 13.3478 51.5686 13.3478C51.3708 13.3478 51.1701 13.2691 51.013 13.1495C50.0996 12.75 49.1048 12.5517 48.1129 12.5925C47.438 12.5925 46.7632 12.7121 46.1668 13.03C45.9283 13.1495 45.7305 13.3478 45.6112 13.587C45.492 13.8261 45.4512 14.106 45.492 14.3452C45.492 14.5435 45.492 14.7447 45.5705 14.943C45.649 15.1413 45.7683 15.3017 45.9283 15.4212C46.3646 15.8586 46.961 16.0978 47.5573 16.1794L49.6226 16.8181C50.4982 17.098 51.2923 17.5763 51.8886 18.2907C52.3249 18.8885 52.5635 19.6438 52.5257 20.3612C52.5257 20.959 52.4064 21.5947 52.0893 22.1138C51.8508 22.6329 51.4523 23.1111 51.0159 23.429C50.4982 23.7877 49.9426 24.0676 49.387 24.3068C48.7906 24.4672 48.1565 24.5051 47.5195 24.5051H47.5602H47.5573Z" fill="white"/>
<path d="M50.3247 31.6136C45.1107 34.919 38.9655 36.6791 32.7008 36.6442C24.7645 36.6442 17.1414 33.8897 11.2268 28.8619C10.7997 28.4588 11.2268 27.9428 11.7707 28.2733C18.2662 31.8716 25.6985 33.7446 33.2447 33.707C38.8858 33.6694 44.4871 32.6428 49.7011 30.5871C50.4016 30.2942 51.1021 31.1004 50.3247 31.6163V31.6136ZM51.0651 34.661C50.8715 35.0641 51.2986 35.2495 51.7257 34.9539C54.2943 32.9358 54.9151 28.7141 54.3712 28.0879C53.8273 27.4994 49.3537 26.9861 46.6684 28.7866C46.2412 29.0795 46.358 29.4853 46.7851 29.3751C48.2232 29.1924 51.7257 28.7866 52.3494 29.5955C52.973 30.4393 51.609 33.3388 51.0651 34.661Z" fill="#F49819"/>
</g>
<path d="M20.1242 50.8453H21.4389C22.0691 50.8453 22.5969 50.7448 23.0223 50.5456C23.4457 50.3465 23.7666 50.0623 23.9851 49.693C24.2016 49.3257 24.3118 48.8965 24.3118 48.4054V48.2372C24.3118 47.7384 24.2035 47.3092 23.9851 46.9438C23.7685 46.5784 23.4476 46.2962 23.0223 46.097C22.5989 45.8979 22.0711 45.7974 21.4389 45.7974H19.0938V53.5152H20.1242V50.8434V50.8453ZM21.6284 46.7022C21.9938 46.7022 22.2934 46.7718 22.5332 46.9129C22.771 47.054 22.9527 47.2454 23.0745 47.491C23.1963 47.7365 23.2582 48.013 23.2582 48.3223C23.2582 48.6316 23.1963 48.8965 23.0745 49.142C22.9527 49.3876 22.771 49.5828 22.5332 49.7259C22.2954 49.869 21.9938 49.9424 21.6284 49.9424H20.1242V46.7041H21.6284V46.7022Z" fill="white"/>
<path d="M30.7015 51.2237L31.5444 53.5166H32.6058L29.7561 45.8394H28.0103L25.2456 53.5166H26.2761L27.0919 51.2237H30.7015ZM28.6792 46.7654H29.062L30.3612 50.2996H27.4206L28.6773 46.7654H28.6792Z" fill="white"/>
<path d="M38.7849 50.4871C39.2025 50.3189 39.5273 50.0599 39.7632 49.708C39.9971 49.3581 40.115 48.9057 40.115 48.3508V48.1826C40.115 47.6297 39.999 47.1773 39.767 46.8254C39.535 46.4755 39.2102 46.2164 38.7888 46.0463C38.3673 45.8781 37.8782 45.7949 37.3156 45.7949H34.8022V53.5128H35.8327V50.7365H37.3156C37.3697 50.7365 37.42 50.7327 37.4741 50.7307L39.5466 53.5128H40.7975L38.5626 50.5587C38.638 50.5355 38.7134 50.5123 38.7849 50.4833V50.4871ZM35.8346 46.7017H37.507C37.8298 46.7017 38.1063 46.7693 38.3383 46.9066C38.5703 47.0439 38.7482 47.2295 38.8738 47.4634C38.9995 47.6973 39.0633 47.9661 39.0633 48.2677C39.0633 48.5693 38.9995 48.838 38.8738 49.0719C38.7482 49.3059 38.5684 49.4915 38.3383 49.6249C38.1063 49.7583 37.8298 49.824 37.507 49.824H35.8346V46.7017Z" fill="white"/>
<path d="M44.2813 53.5166H45.3117V46.7654H47.6453V45.8394H41.9458V46.7654H44.2813V53.5166Z" fill="white"/>
<path d="M50.7889 46.7654H50.9165L54.818 53.5166H56.5213V45.8394H55.5314V52.5906H55.4057L51.5043 45.8394H49.8223V53.5166H50.7889V46.7654Z" fill="white"/>
<path d="M60.5695 50.0772H63.7557V49.1531H60.5695V46.7654H63.9761V45.8394H60.5695H60.3588H59.5391V53.5166H60.3588H60.5695H64.0824V52.5906H60.5695V50.0772Z" fill="white"/>
<path d="M70.6169 50.4871C71.0345 50.3189 71.3593 50.0599 71.5952 49.708C71.8291 49.3581 71.9471 48.9057 71.9471 48.3508V48.1826C71.9471 47.6297 71.8311 47.1773 71.5991 46.8254C71.3671 46.4755 71.0423 46.2164 70.6208 46.0463C70.1993 45.8781 69.7102 45.7949 69.1476 45.7949H66.6343V53.5128H67.6647V50.7365H69.1476C69.2017 50.7365 69.252 50.7327 69.3061 50.7307L71.3787 53.5128H72.6295L70.3946 50.5587C70.47 50.5355 70.5454 50.5123 70.6169 50.4833V50.4871ZM67.6667 46.7017H69.339C69.6619 46.7017 69.9383 46.7693 70.1703 46.9066C70.4023 47.0439 70.5802 47.2295 70.7059 47.4634C70.8315 47.6973 70.8953 47.9661 70.8953 48.2677C70.8953 48.5693 70.8315 48.838 70.7059 49.0719C70.5802 49.3059 70.4004 49.4915 70.1703 49.6249C69.9383 49.7583 69.6619 49.824 69.339 49.824H67.6667V46.7017Z" fill="white"/>
<path d="M24.8048 65.2097H24.6791L20.7777 58.4585H19.0938V66.1358H20.0623V59.3846H20.188L24.0895 66.1358H25.7927V58.4585H24.8048V65.2097Z" fill="white"/>
<path d="M29.841 62.6964H33.0271V61.7722H29.841V59.3846H33.2495V58.4585H29.841H29.6303H28.8105V66.1358H29.6303H29.841H33.3539V65.2097H29.841V62.6964Z" fill="white"/>
<path d="M35.0688 59.3846H37.4024V66.1358H38.4328V59.3846H40.7683V58.4585H35.0688V59.3846Z" fill="white"/>
<path d="M50.0578 65.2097H49.7388L48.1496 58.7736H47.8016H47.1501H46.835L45.4294 65.2097H45.0988L43.3646 58.4585H42.3032L44.3738 66.1358H46.1312L47.4923 60.1405L48.9906 66.1358H50.7577L52.6408 58.4585H51.6103L50.0578 65.2097Z" fill="white"/>
<path d="M61.1573 59.5158C60.8267 59.133 60.4169 58.8276 59.9219 58.5956C59.427 58.3636 58.8431 58.2495 58.1703 58.2495C57.4975 58.2495 56.9137 58.3655 56.4187 58.5956C55.9238 58.8276 55.512 59.133 55.1833 59.5158C54.8527 59.8986 54.6091 60.3201 54.4467 60.7822C54.2863 61.2442 54.2051 61.7044 54.2051 62.1587V62.3907C54.2051 62.8122 54.2843 63.2491 54.4409 63.7054C54.5995 64.1616 54.8392 64.5889 55.1621 64.9891C55.4849 65.3893 55.8948 65.7122 56.3917 65.9558C56.8885 66.2013 57.4821 66.3231 58.1684 66.3231C58.8547 66.3231 59.4483 66.1994 59.9451 65.9558C60.442 65.7102 60.8538 65.3874 61.1747 64.9891C61.4976 64.5889 61.7373 64.1616 61.8959 63.7054C62.0544 63.2491 62.1317 62.8122 62.1317 62.3907V62.1587C62.1317 61.7024 62.0505 61.2442 61.8901 60.7822C61.7296 60.3201 61.4841 59.8967 61.1535 59.5158H61.1573ZM60.8828 63.4482C60.7494 63.8156 60.5561 64.1462 60.3047 64.4362C60.0534 64.7262 59.746 64.9562 59.3845 65.1244C59.0229 65.2926 58.6189 65.3777 58.1703 65.3777C57.7218 65.3777 57.3158 65.2926 56.9562 65.1244C56.5947 64.9562 56.2892 64.7262 56.0359 64.4362C55.7827 64.1462 55.5913 63.8156 55.4579 63.4482C55.3245 63.0809 55.2587 62.6923 55.2587 62.2863C55.2587 61.859 55.3245 61.4588 55.4579 61.0876C55.5913 60.7164 55.7846 60.3878 56.0359 60.1036C56.2873 59.8194 56.5947 59.597 56.9562 59.4366C57.3177 59.2761 57.7218 59.1949 58.1703 59.1949C58.6189 59.1949 59.0249 59.2761 59.3845 59.4366C59.746 59.597 60.0515 59.8213 60.3047 60.1036C60.558 60.3858 60.7494 60.7145 60.8828 61.0876C61.0162 61.4608 61.0819 61.859 61.0819 62.2863C61.0819 62.7136 61.0143 63.0809 60.8828 63.4482Z" fill="white"/>
<path d="M68.5989 63.1077C69.0165 62.9395 69.3413 62.6805 69.5771 62.3286C69.8111 61.9787 69.929 61.5263 69.929 60.9714V60.8032C69.929 60.2503 69.813 59.7979 69.581 59.446C69.349 59.0961 69.0242 58.837 68.6027 58.6669C68.1813 58.4987 67.6921 58.4155 67.1295 58.4155H64.6162V66.1334H65.6467V63.3571H67.1295C67.1837 63.3571 67.2339 63.3533 67.2881 63.3513L69.3606 66.1334H70.6115L68.3765 63.1793C68.4519 63.1561 68.5273 63.1329 68.5989 63.1039V63.1077ZM65.6486 59.3223H67.3209C67.6438 59.3223 67.9203 59.3899 68.1523 59.5272C68.3843 59.6645 68.5621 59.8501 68.6878 60.084C68.8135 60.3179 68.8773 60.5867 68.8773 60.8883C68.8773 61.1899 68.8135 61.4586 68.6878 61.6925C68.5621 61.9265 68.3823 62.1121 68.1523 62.2455C67.9203 62.3789 67.6438 62.4446 67.3209 62.4446H65.6486V59.3223Z" fill="white"/>
<path d="M75.1316 61.8515L78.0992 58.4585H76.9218L73.7976 62.0429V58.4585H72.7671V66.1358H73.7976V62.5494H74.482L77.6043 66.1358H78.888L75.1316 61.8515Z" fill="white"/>
</g>
<defs>
<clipPath id="clip0_2571_314">
<rect width="87" height="87" fill="white"/>
</clipPath>
</defs>
</svg>
