<?xml version="1.0" encoding="utf-8"?>
<!-- Generator: Adobe Illustrator 27.5.0, SVG Export Plug-In . SVG Version: 6.00 Build 0)  -->
<svg version="1.1" id="Layer_1" xmlns="http://www.w3.org/2000/svg" xmlns:xlink="http://www.w3.org/1999/xlink" x="0px" y="0px"
	 viewBox="0 0 109.6 97.5" style="enable-background:new 0 0 109.6 97.5;" xml:space="preserve">
<style type="text/css">
	.st0{fill:none;stroke:#F93F06;stroke-width:3.3712;stroke-linecap:round;stroke-linejoin:round;stroke-miterlimit:10;}
	.st1{fill:none;stroke:#F93F06;stroke-width:3;stroke-linecap:round;stroke-linejoin:round;stroke-miterlimit:10;}
	.st2{fill:#FFFFFF;}
	.st3{fill:none;stroke:#FFFFFF;stroke-width:3;stroke-linecap:round;stroke-linejoin:round;stroke-miterlimit:10;}
</style>
<polygon class="st0" points="38.1,68.1 23.5,54.7 9.2,68.1 12.9,68.1 12.9,81.2 34.3,81.2 34.3,68.1 "/>
<rect x="19.8" y="70.5" transform="matrix(-1 -1.224647e-16 1.224647e-16 -1 47.2614 151.6752)" class="st0" width="7.7" height="10.7"/>
<polygon class="st0" points="38.1,31 23.5,17.6 9.2,31 12.9,31 12.9,44.1 34.3,44.1 34.3,31 "/>
<rect x="19.8" y="33.4" transform="matrix(-1 -1.224647e-16 1.224647e-16 -1 47.2614 77.5161)" class="st0" width="7.7" height="10.7"/>
<path class="st1" d="M74.9,57.7H59c-5.1,0-9.3-4.2-9.3-9.3v-0.8c0-5.1,4.2-9.3,9.3-9.3h15.9c5.1,0,9.3,4.2,9.3,9.3v0.8
	C84.2,53.5,80,57.7,74.9,57.7z"/>
<circle class="st2" cx="73.9" cy="48" r="5.9"/>
<polyline class="st3" points="90,47.1 93.7,50.8 100.6,43.9 "/>
<path class="st1" d="M18.8,89.6c0,3.5,2.9,6.4,6.4,6.4H87c3.5,0,6.4-2.9,6.4-6.4V57.6"/>
<path class="st1" d="M93.4,43.2V7.9c0-3.5-2.9-6.4-6.4-6.4H25.3c-3.5,0-6.4,2.9-6.4,6.4"/>
</svg>
