<?xml version="1.0" encoding="utf-8"?>
<!-- Generator: Adobe Illustrator 27.5.0, SVG Export Plug-In . SVG Version: 6.00 Build 0)  -->
<svg version="1.1" id="Layer_1" xmlns="http://www.w3.org/2000/svg" xmlns:xlink="http://www.w3.org/1999/xlink" x="0px" y="0px"
	 viewBox="0 0 109.6 97.5" style="enable-background:new 0 0 109.6 97.5;" xml:space="preserve">
<style type="text/css">
	.st0{fill:none;stroke:#F93F06;stroke-width:3;stroke-linecap:round;stroke-linejoin:round;stroke-miterlimit:10;}
	.st1{fill:#FFFFFF;}
	.st2{fill:none;stroke:#FFFFFF;stroke-width:3;stroke-linecap:round;stroke-linejoin:round;stroke-miterlimit:10;}
</style>
<g>
	<path class="st0" d="M37.8,23.1v-7.1H7.6c-3.4,0-6.1,2.7-6.1,6.1v53.5c0,3.4,2.7,6.1,6.1,6.1h37.2c3.4,0,6.1-2.7,6.1-6.1V29.2h-7
		C40.5,29.2,37.8,26.5,37.8,23.1z"/>
	<path class="st0" d="M39,16.1h-1.3v7.1c0,3.4,2.7,6.1,6.1,6.1h7V28L39,16.1z"/>
	<path class="st0" d="M39.7,45.5H12.8c-1.1,0-2-0.9-2-2v-6c0-1.1,0.9-2,2-2h26.9c1.1,0,2,0.9,2,2v6C41.6,44.6,40.7,45.5,39.7,45.5z"
		/>
	<line class="st0" x1="41.6" y1="60.9" x2="10.8" y2="60.9"/>
	<line class="st0" x1="41.6" y1="53.2" x2="10.8" y2="53.2"/>
	<line class="st0" x1="34.7" y1="68.6" x2="10.8" y2="68.6"/>
</g>
<path class="st0" d="M82.3,57.7H66.4c-5.1,0-9.3-4.2-9.3-9.3v-0.8c0-5.1,4.2-9.3,9.3-9.3h15.9c5.1,0,9.3,4.2,9.3,9.3v0.8
	C91.7,53.5,87.5,57.7,82.3,57.7z"/>
<circle class="st1" cx="81.4" cy="48" r="5.9"/>
<polyline class="st2" points="97.5,47.1 101.2,50.8 108.1,43.9 "/>
<path class="st0" d="M26.3,89.6c0,3.5,2.9,6.4,6.4,6.4h61.8c3.5,0,6.4-2.9,6.4-6.4V57.6"/>
<path class="st0" d="M100.9,43.2V7.9c0-3.5-2.9-6.4-6.4-6.4H32.7c-3.5,0-6.4,2.9-6.4,6.4"/>
</svg>
